<svg xmlns="http://www.w3.org/2000/svg" xmlns:xlink="http://www.w3.org/1999/xlink" viewBox="0,0,256,256" width="50px" height="50px" fill-rule="nonzero"><g fill="currentColor" fill-rule="nonzero" stroke="none" stroke-width="1" stroke-linecap="butt" stroke-linejoin="miter" stroke-miterlimit="10" stroke-dasharray="" stroke-dashoffset="0" font-family="none" font-weight="none" font-size="none" text-anchor="none" style="mix-blend-mode: normal"><g transform="scale(5.12,5.12)"><path d="M25.83203,1.71094l-20.57422,16.28906h-2.25781c-0.35937,-0.00391 -0.69531,0.18359 -0.87891,0.49609c-0.17969,0.3125 -0.17969,0.69531 0,1.00781c0.18359,0.3125 0.51953,0.5 0.87891,0.49609h6v9h-1c-0.55078,0 -1,0.44922 -1,1v4c0,0.55078 0.44922,1 1,1h9c0.55078,0 1,-0.44922 1,-1v-4c0,-0.55078 -0.44922,-1 -1,-1h-1v-9h7v28h2v-43.08203l1,-0.79297l1,0.58594v43.28906h2v-9h11v9h2v-32h2v32h2v-28h1c0.35938,0.00391 0.69531,-0.18359 0.87891,-0.49609c0.17969,-0.3125 0.17969,-0.69531 0,-1.00781c-0.18359,-0.3125 -0.51953,-0.5 -0.87891,-0.49609h-1v-2h1c0.55078,0 1,-0.44922 1,-1v-5c0,-0.55078 -0.44922,-1 -1,-1h-8.72656zM29,5.88281l8,4.69141v4.42578c0,0.55078 0.44922,1 1,1h2v2h-11zM23,6.5v11.5h-14.52344zM39,11h7v3h-7zM11,20h3v9h-3zM29,20h9.9375l-9.9375,12.58594zM40,21.87891v15.12109h-11v-1.1875zM9,31h7v2h-7z"></path></g></g></svg>