<svg xmlns="http://www.w3.org/2000/svg" xmlns:xlink="http://www.w3.org/1999/xlink" viewBox="0,0,256,256" width="150px" height="150px" fill-rule="nonzero"><g fill="currentColor" fill-rule="nonzero" stroke="none" stroke-width="1" stroke-linecap="butt" stroke-linejoin="miter" stroke-miterlimit="10" stroke-dasharray="" stroke-dashoffset="0" font-family="none" font-weight="none" font-size="none" text-anchor="none" style="mix-blend-mode: normal"><g transform="scale(5.12,5.12)"><path d="M25.5,0c-3.02344,0 -5.5,2.47656 -5.5,5.5c0,3.02734 2.47656,5.5 5.5,5.5c3.02734,0 5.5,-2.47266 5.5,-5.5c0,-3.02344 -2.47266,-5.5 -5.5,-5.5zM25.5,2c1.94922,0 3.5,1.55859 3.5,3.5c0,1.94531 -1.55078,3.5 -3.5,3.5c-1.94141,0 -3.5,-1.55469 -3.5,-3.5c0,-1.94141 1.55859,-3.5 3.5,-3.5zM18,9.21875c0,0 -6.39062,0.32813 -7.09375,0.375c-0.70703,0.04688 -1.43359,0.27734 -1.9375,0.78125c-0.17969,0.17969 -0.57031,0.64063 -1.21875,1.34375c-0.64844,0.70313 -1.49219,1.60938 -2.3125,2.5c-1.64062,1.78125 -3.25,3.5 -3.25,3.5h0.03125v0.03125c-0.74219,0.80859 -0.99609,1.80078 -0.78125,2.5625c0.21875,0.76953 0.67578,1.25 1.25,1.53125c0.45313,0.22266 1.08984,0.41406 1.8125,0.3125c0.29688,-0.04297 0.60156,-0.14062 0.90625,-0.28125l1.6875,0.84375c-0.50391,1.05859 -0.89453,2.22266 -1.0625,2.78125c-0.11719,0.38672 -1.48047,5.02734 -2.875,9.75c-0.69531,2.35938 -1.40625,4.71875 -1.9375,6.53125c-0.53125,1.8125 -0.88672,2.97266 -0.96875,3.28125c-0.10547,0.41016 -0.27344,1.22656 -0.09375,2.1875c0.17969,0.96094 0.87891,2.09766 2.21875,2.5625c0.72656,0.25391 1.44531,0.22656 2.03125,0c0.58594,-0.22656 1.01953,-0.64844 1.3125,-1.03125c0.53906,-0.70703 0.66016,-1.35156 0.6875,-1.46875h0.03125l0.03125,-0.125l5.15625,-13.5625l3.84375,3.5625l1.1875,9.40625v0.09375h0.03125c0.00391,0.08594 0.00781,0.73438 0.34375,1.5c0.35547,0.8125 1.26563,1.8125 2.65625,1.8125c0.59766,0 1.12891,-0.10156 1.59375,-0.34375c0.46484,-0.24219 0.83203,-0.64453 1.03125,-1.0625c0.39844,-0.83984 0.34375,-1.66406 0.34375,-2.46875c0,-1.58203 -0.3125,-8.17187 -0.34375,-8.78125c-0.03906,-0.76953 -0.22656,-1.49219 -0.59375,-2.125c0,-0.01172 0,-0.01953 0,-0.03125c-0.47266,-0.8125 -3.30859,-5.94141 -3.6875,-6.625l0.15625,-0.3125l5.53125,2.78125c0.24609,0.76953 0.58984,1.46094 1.125,2c0.57813,0.58203 1.48828,0.90625 2.375,0.71875c0.37109,-0.07812 0.74609,-0.23047 1.0625,-0.4375l5.3125,2.625c-0.38672,0.59766 -0.76172,1.12109 -1.09375,1.46875c-0.47266,0.49609 -0.80859,0.65625 -1,0.65625c-0.59375,0 -1.18359,0.04688 -1.75,0.28125c-0.56641,0.23438 -1.08984,0.69141 -1.375,1.3125c-0.51562,1.12109 -4.28125,8.90625 -4.28125,8.90625c-0.15234,0.3125 -0.13281,0.67969 0.05469,0.97266c0.18359,0.28906 0.50391,0.46875 0.85156,0.46484h24c0.34766,0.00391 0.66797,-0.17578 0.85156,-0.46484c0.1875,-0.29297 0.20703,-0.66016 0.05469,-0.97266c0,0 -1.66016,-3.52344 -3.40625,-7.25c-1.74609,-3.72656 -3.62109,-7.70312 -3.90625,-8.375c-0.41797,-0.97656 -0.87891,-1.72266 -1.46875,-2.21875c-0.58984,-0.49609 -1.31641,-0.71875 -1.96875,-0.71875c-0.51172,0 -1.42187,0.14063 -2.15625,0.875c-0.62891,0.62891 -1.30859,1.65234 -2.34375,3.375l-5.375,-2.71875c0.01563,-0.38672 -0.05859,-0.77344 -0.15625,-1.1875c-0.15234,-0.64453 -0.8125,-4.27734 -1.40625,-7.59375c-0.59375,-3.31641 -1.15625,-6.4375 -1.15625,-6.4375c-0.11328,-0.62109 -0.41797,-1.10156 -0.71875,-1.59375c0,-0.01172 0,-0.01953 0,-0.03125c-0.01562,-0.17969 -0.08203,-0.35156 -0.1875,-0.5c0,0 -0.05859,-0.05859 -0.0625,-0.0625c-0.07031,-0.09375 -0.98437,-1.32422 -3.25,-2.875c-2.20703,-1.51172 -3.19141,-1.96484 -4.09375,-2c-0.03516,0 -0.08984,-0.03125 -0.125,-0.03125c-0.03125,0 -0.0625,0 -0.09375,0c-0.01172,0 -0.01953,0 -0.03125,0zM17.96875,11.21875c0.01172,0 0.01953,0 0.03125,0c0.05078,0.01563 0.10156,0.02344 0.15625,0.03125h0.03125c0.23047,0.00781 0.85938,0.16797 3.03125,1.65625c2.10938,1.44531 2.71875,2.33203 2.75,2.375c0,0.01172 0,0.01953 0,0.03125c0.02734,0.04297 0.05859,0.08594 0.09375,0.125c0.21875,0.25 0.43359,0.66797 0.53125,1.21875c0,0 0.5625,3.11719 1.15625,6.4375c0.59375,3.32031 1.21484,6.74609 1.4375,7.6875c0.08594,0.35547 0.10156,0.55859 0.09375,0.6875c0,0.01563 0,0.01953 0,0.03125c-0.05859,0.05469 -0.11328,0.11719 -0.15625,0.1875c0,0.01172 0,0.01953 0,0.03125c-0.0625,0.02344 -0.13281,0.02344 -0.3125,0.0625c-0.28906,0.0625 -0.35156,0.05469 -0.5625,-0.15625c-0.21094,-0.21094 -0.46484,-0.69141 -0.65625,-1.34375c-0.00781,-0.03125 -0.05078,-0.21094 -0.0625,-0.25c-0.00781,-0.03125 -0.01953,-0.0625 -0.03125,-0.09375c-0.375,-1.34375 -1.71875,-6.78906 -2.46875,-9.8125c-0.09375,-0.39062 -0.41016,-0.6875 -0.80469,-0.75391c-0.39453,-0.07031 -0.78906,0.10547 -1.00781,0.44141l-3.8125,5.8125l-7.40625,-3.71875c0.83203,-1.16797 2.89063,-4.08203 4.25,-6.1875c0.21484,-0.3125 0.23047,-0.72266 0.04688,-1.05078c-0.1875,-0.33203 -0.54297,-0.53125 -0.92187,-0.51172l-2.375,0.125c-0.24609,0.01172 -0.48047,0.10938 -0.65625,0.28125l-5,4.96875l-0.03125,0.03125c-0.10937,0.10156 -0.21484,0.17969 -0.3125,0.25c-0.01172,0.00781 -0.01953,0.02344 -0.03125,0.03125c-0.01953,0.00781 -0.04297,0.01953 -0.0625,0.03125c-0.05469,0.02734 -0.10547,0.05859 -0.15625,0.09375c-0.03906,0.02344 -0.05859,0.07422 -0.09375,0.09375c-0.16406,0.08203 -0.32812,0.10938 -0.4375,0.125c-0.25,0.03516 -0.4375,-0.01953 -0.65625,-0.125c0.07813,0.03906 -0.14844,-0.14062 -0.1875,-0.28125c-0.03906,-0.14062 -0.11328,-0.26562 0.28125,-0.6875c0.01172,-0.01172 0.01953,-0.01953 0.03125,-0.03125c0,0 1.57813,-1.71875 3.21875,-3.5c0.82031,-0.89062 1.66406,-1.80078 2.3125,-2.5c0.64844,-0.69922 1.15625,-1.25 1.15625,-1.25c0.1875,-0.1875 0.15234,-0.1875 0.65625,-0.21875c0.5,-0.03125 6.71484,-0.36328 6.9375,-0.375zM11.375,16.34375c-1.40234,2.05078 -2.78906,4.03906 -3.21875,4.65625l-0.96875,-0.5zM21.65625,22.8125c0.48047,1.95313 0.99219,3.95313 1.40625,5.625l-3.84375,-1.90625zM8.9375,23.625l7.46875,3.75l-0.40625,0.8125c-0.13672,0.28906 -0.125,0.625 0.03125,0.90625c0,0 3.34766,6.10938 3.9375,7.125c0.09766,0.16797 0.32422,0.86328 0.34375,1.25c0.02734,0.54297 0.34375,7.36328 0.34375,8.65625c0,0.80469 -0.06641,1.43359 -0.15625,1.625c-0.04687,0.09766 -0.03906,0.08203 -0.125,0.125c-0.08594,0.04297 -0.30859,0.125 -0.6875,0.125c-0.5625,0 -0.66797,-0.22266 -0.84375,-0.625c-0.17578,-0.40234 -0.1875,-0.84375 -0.1875,-0.84375c0,-0.03125 0,-0.0625 0,-0.09375l-1.21875,-9.84375c-0.02734,-0.23828 -0.13672,-0.46094 -0.3125,-0.625l-5.25,-4.84375c-0.24219,-0.21875 -0.57812,-0.30078 -0.89453,-0.22656c-0.31641,0.07422 -0.57812,0.30078 -0.69922,0.60156l-5.71875,15.125c-0.01172,0.03125 -0.02344,0.0625 -0.03125,0.09375c0,0 -0.12891,0.51172 -0.40625,0.875c-0.13672,0.18359 -0.29297,0.28906 -0.4375,0.34375c-0.14453,0.05469 -0.30078,0.08984 -0.65625,-0.03125c-0.69922,-0.24219 -0.81641,-0.55859 -0.90625,-1.03125c-0.08984,-0.47266 -0.00391,-1.0625 0.0625,-1.3125c0.00391,-0.01953 0.40625,-1.40625 0.9375,-3.21875c0.53125,-1.8125 1.24219,-4.17187 1.9375,-6.53125c1.39453,-4.71875 2.80469,-9.51172 2.875,-9.75c0.11719,-0.38672 0.56641,-1.52344 1,-2.4375zM38.78125,32c0.07031,-0.02344 0.13672,0 0.375,0c0.22266,0 0.39063,0.02734 0.65625,0.25c0.26563,0.22266 0.60547,0.68359 0.9375,1.46875c0.375,0.88281 2.19141,4.71094 3.9375,8.4375c1.39844,2.98828 2.23828,4.82422 2.71875,5.84375h-20.8125c0.85156,-1.76562 3.10547,-6.44141 3.59375,-7.5c0.08203,-0.17969 0.15234,-0.23437 0.34375,-0.3125c0.19141,-0.07812 0.51953,-0.125 0.96875,-0.125c0.98047,0 1.76953,-0.58594 2.4375,-1.28125c0.57813,-0.60547 1.10156,-1.38672 1.625,-2.25c0.01172,-0.01172 0.01953,-0.01953 0.03125,-0.03125c0.00781,-0.01172 0.02344,-0.01953 0.03125,-0.03125c0.33594,-0.17578 0.53906,-0.52734 0.53125,-0.90625c1.11719,-1.86328 1.84766,-2.84766 2.25,-3.25c0.22266,-0.22266 0.30469,-0.28906 0.375,-0.3125z"></path></g></g></svg>