<svg xmlns="http://www.w3.org/2000/svg" xmlns:xlink="http://www.w3.org/1999/xlink" viewBox="0,0,256,256" width="50px" height="50px" fill-rule="nonzero"><g fill="currentColor" fill-rule="nonzero" stroke="none" stroke-width="1" stroke-linecap="butt" stroke-linejoin="miter" stroke-miterlimit="10" stroke-dasharray="" stroke-dashoffset="0" font-family="none" font-weight="none" font-size="none" text-anchor="none" style="mix-blend-mode: normal"><g transform="scale(5.12,5.12)"><path d="M25,-0.0625c-5.54297,0 -10.0625,4.51953 -10.0625,10.0625c0,3.26953 1.57422,6.16016 4,8h-16.9375c-0.52344,0 -1.05859,0.18359 -1.4375,0.5625c-0.37891,0.37891 -0.5625,0.91406 -0.5625,1.4375v9c0,0.52344 0.18359,1.05859 0.5625,1.4375c0.37891,0.37891 0.91406,0.5625 1.4375,0.5625h2v18c0,0.55078 0.44922,1 1,1h5c0.55078,0 1,-0.44922 1,-1v-5h28v5c0,0.55078 0.44922,1 1,1h5c0.55078,0 1,-0.44922 1,-1v-18h2c0.52344,0 1.05859,-0.18359 1.4375,-0.5625c0.37891,-0.37891 0.5625,-0.91406 0.5625,-1.4375v-9c0,-0.52344 -0.18359,-1.05859 -0.5625,-1.4375c-0.37891,-0.37891 -0.91406,-0.5625 -1.4375,-0.5625h-16.9375c2.42578,-1.83984 4,-4.73047 4,-8c0,-5.54297 -4.51953,-10.0625 -10.0625,-10.0625zM25,2.0625c4.39844,0 7.9375,3.53906 7.9375,7.9375c0,4.39844 -3.53906,7.9375 -7.9375,7.9375c-4.39844,0 -7.9375,-3.53906 -7.9375,-7.9375c0,-4.39844 3.53906,-7.9375 7.9375,-7.9375zM19,8v4h12v-4zM2,20h3.84375l-3.84375,6.46875zM8.15625,20h4.6875l-5.375,9h-4.65625zM15.15625,20h4.6875l-5.375,9h-4.71875zM22.15625,20h1.8125c0.33594,0.03516 0.68359,0.0625 1.03125,0.0625c0.34766,0 0.69531,-0.02734 1.03125,-0.0625h0.8125l-5.375,9h-4.71875zM29.15625,20h4.6875l-5.375,9h-4.71875zM36.15625,20h4.6875l-5.375,9h-4.71875zM43.15625,20h4.625l-5.34375,9h-4.6875zM48,23.5625v5.4375h-3.25zM6,31h1.34375c0.33984,0.23047 0.78516,0.23047 1.125,0h0.53125v7.8125c-0.00781,0.0625 -0.00781,0.125 0,0.1875v4c0,0.03125 0,0.0625 0,0.09375v4.90625h-3zM11,31h3.34375c0.33984,0.23047 0.78516,0.23047 1.125,0h5.875c0.33984,0.23047 0.78516,0.23047 1.125,0h5.875c0.33984,0.23047 0.78516,0.23047 1.125,0h5.875c0.33984,0.23047 0.78516,0.23047 1.125,0h2.53125v7h-28zM41,31h1.34375c0.33984,0.23047 0.78516,0.23047 1.125,0h0.53125v17h-3v-4.84375c0.00391,-0.05078 0.00391,-0.10547 0,-0.15625v-4c0,-0.03125 0,-0.0625 0,-0.09375zM11,40h28v2h-28z"></path></g></g></svg>